<mxfile host="app.diagrams.net" modified="2024-04-15T12:00:04.074Z" agent="Mozilla/5.0 (Windows NT 10.0; Win64; x64; rv:124.0) Gecko/20100101 Firefox/124.0" etag="W4ckD7OzysGx5pf5VuQZ" version="24.2.3" type="device">
  <diagram name="Página-1" id="S4oy3xDEYeUQU2gLbuBK">
    <mxGraphModel dx="1434" dy="1923" grid="1" gridSize="10" guides="1" tooltips="1" connect="1" arrows="1" fold="1" page="1" pageScale="1" pageWidth="827" pageHeight="1169" math="0" shadow="0">
      <root>
        <mxCell id="0" />
        <mxCell id="1" parent="0" />
        <mxCell id="9qqQeVZJJyEifuEDiSa8-4" value="Firewall" style="rounded=0;whiteSpace=wrap;html=1;" parent="1" vertex="1">
          <mxGeometry x="15" y="30" width="290" height="180" as="geometry" />
        </mxCell>
        <mxCell id="8hrsjIlJ7boSl-8sddWK-3" style="edgeStyle=orthogonalEdgeStyle;rounded=0;orthogonalLoop=1;jettySize=auto;html=1;entryX=0.5;entryY=0;entryDx=0;entryDy=0;" edge="1" parent="1" source="9qqQeVZJJyEifuEDiSa8-1" target="8hrsjIlJ7boSl-8sddWK-2">
          <mxGeometry relative="1" as="geometry" />
        </mxCell>
        <mxCell id="9qqQeVZJJyEifuEDiSa8-1" value="MySQL" style="rounded=0;whiteSpace=wrap;html=1;" parent="1" vertex="1">
          <mxGeometry x="30" y="50" width="120" height="60" as="geometry" />
        </mxCell>
        <mxCell id="8hrsjIlJ7boSl-8sddWK-13" style="edgeStyle=orthogonalEdgeStyle;rounded=0;orthogonalLoop=1;jettySize=auto;html=1;" edge="1" parent="1" source="9qqQeVZJJyEifuEDiSa8-2">
          <mxGeometry relative="1" as="geometry">
            <mxPoint x="330" y="80" as="targetPoint" />
          </mxGeometry>
        </mxCell>
        <mxCell id="9qqQeVZJJyEifuEDiSa8-2" value="&lt;div&gt;BackEnd&lt;/div&gt;&lt;div&gt;DotNet 8&lt;br&gt;&lt;/div&gt;" style="rounded=0;whiteSpace=wrap;html=1;" parent="1" vertex="1">
          <mxGeometry x="170" y="50" width="120" height="60" as="geometry" />
        </mxCell>
        <mxCell id="8hrsjIlJ7boSl-8sddWK-15" style="edgeStyle=orthogonalEdgeStyle;rounded=0;orthogonalLoop=1;jettySize=auto;html=1;" edge="1" parent="1" source="9qqQeVZJJyEifuEDiSa8-3">
          <mxGeometry relative="1" as="geometry">
            <mxPoint x="380" y="110" as="targetPoint" />
          </mxGeometry>
        </mxCell>
        <mxCell id="9qqQeVZJJyEifuEDiSa8-3" value="&lt;div&gt;FrontEnd&lt;/div&gt;&lt;div&gt;Node.js&lt;/div&gt;&lt;div&gt;&lt;br&gt;&lt;/div&gt;" style="rounded=0;whiteSpace=wrap;html=1;" parent="1" vertex="1">
          <mxGeometry x="170" y="130" width="120" height="60" as="geometry" />
        </mxCell>
        <mxCell id="9qqQeVZJJyEifuEDiSa8-5" value="CLOUD PÚBLICA" style="text;html=1;align=center;verticalAlign=middle;resizable=0;points=[];autosize=1;strokeColor=none;fillColor=none;" parent="1" vertex="1">
          <mxGeometry x="100" y="-2" width="120" height="30" as="geometry" />
        </mxCell>
        <mxCell id="9qqQeVZJJyEifuEDiSa8-13" style="edgeStyle=orthogonalEdgeStyle;rounded=0;orthogonalLoop=1;jettySize=auto;html=1;exitX=0.25;exitY=0;exitDx=0;exitDy=0;entryX=1;entryY=0;entryDx=0;entryDy=0;" parent="1" source="9qqQeVZJJyEifuEDiSa8-7" target="9qqQeVZJJyEifuEDiSa8-4" edge="1">
          <mxGeometry relative="1" as="geometry" />
        </mxCell>
        <mxCell id="9qqQeVZJJyEifuEDiSa8-7" value="" style="rounded=0;whiteSpace=wrap;html=1;" parent="1" vertex="1">
          <mxGeometry x="430" y="30" width="290" height="260" as="geometry" />
        </mxCell>
        <mxCell id="9qqQeVZJJyEifuEDiSa8-8" value="&lt;div&gt;INFRA LOCAL&lt;/div&gt;&lt;div&gt;&lt;br&gt;&lt;/div&gt;" style="text;html=1;align=center;verticalAlign=middle;resizable=0;points=[];autosize=1;strokeColor=none;fillColor=none;" parent="1" vertex="1">
          <mxGeometry x="525" width="100" height="40" as="geometry" />
        </mxCell>
        <mxCell id="9qqQeVZJJyEifuEDiSa8-9" value="Active Directory" style="rounded=0;whiteSpace=wrap;html=1;" parent="1" vertex="1">
          <mxGeometry x="515" y="50" width="120" height="60" as="geometry" />
        </mxCell>
        <mxCell id="9qqQeVZJJyEifuEDiSa8-10" value="FileServer" style="rounded=0;whiteSpace=wrap;html=1;" parent="1" vertex="1">
          <mxGeometry x="515" y="130" width="120" height="60" as="geometry" />
        </mxCell>
        <mxCell id="9qqQeVZJJyEifuEDiSa8-11" value="PrintServer" style="rounded=0;whiteSpace=wrap;html=1;" parent="1" vertex="1">
          <mxGeometry x="515" y="210" width="120" height="60" as="geometry" />
        </mxCell>
        <mxCell id="9qqQeVZJJyEifuEDiSa8-15" value="Rede Wifi" style="rounded=0;whiteSpace=wrap;html=1;" parent="1" vertex="1">
          <mxGeometry x="515" y="340" width="120" height="60" as="geometry" />
        </mxCell>
        <mxCell id="9qqQeVZJJyEifuEDiSa8-16" style="edgeStyle=orthogonalEdgeStyle;rounded=0;orthogonalLoop=1;jettySize=auto;html=1;entryX=0.5;entryY=1;entryDx=0;entryDy=0;" parent="1" source="9qqQeVZJJyEifuEDiSa8-15" target="9qqQeVZJJyEifuEDiSa8-7" edge="1">
          <mxGeometry relative="1" as="geometry" />
        </mxCell>
        <mxCell id="8hrsjIlJ7boSl-8sddWK-2" value="Backup&#39;s" style="rounded=0;whiteSpace=wrap;html=1;" vertex="1" parent="1">
          <mxGeometry x="30" y="130" width="120" height="60" as="geometry" />
        </mxCell>
        <mxCell id="8hrsjIlJ7boSl-8sddWK-8" value="" style="edgeStyle=orthogonalEdgeStyle;rounded=0;orthogonalLoop=1;jettySize=auto;html=1;" edge="1" parent="1" source="8hrsjIlJ7boSl-8sddWK-6" target="8hrsjIlJ7boSl-8sddWK-7">
          <mxGeometry relative="1" as="geometry" />
        </mxCell>
        <mxCell id="8hrsjIlJ7boSl-8sddWK-9" value="&#xa;Firewall&#xa;&#xa;" style="rounded=0;whiteSpace=wrap;html=1;" vertex="1" parent="1">
          <mxGeometry x="10" y="248" width="290" height="180" as="geometry" />
        </mxCell>
        <mxCell id="8hrsjIlJ7boSl-8sddWK-10" style="edgeStyle=orthogonalEdgeStyle;rounded=0;orthogonalLoop=1;jettySize=auto;html=1;" edge="1" parent="1" source="8hrsjIlJ7boSl-8sddWK-6" target="8hrsjIlJ7boSl-8sddWK-7">
          <mxGeometry relative="1" as="geometry" />
        </mxCell>
        <mxCell id="8hrsjIlJ7boSl-8sddWK-6" value="MySQL" style="rounded=0;whiteSpace=wrap;html=1;" vertex="1" parent="1">
          <mxGeometry x="40" y="260" width="120" height="60" as="geometry" />
        </mxCell>
        <mxCell id="8hrsjIlJ7boSl-8sddWK-7" value="Backup&#39;s" style="rounded=0;whiteSpace=wrap;html=1;" vertex="1" parent="1">
          <mxGeometry x="40" y="340" width="120" height="60" as="geometry" />
        </mxCell>
        <mxCell id="8hrsjIlJ7boSl-8sddWK-11" value="Replica DB e Backup Cloud" style="text;html=1;align=center;verticalAlign=middle;resizable=0;points=[];autosize=1;strokeColor=none;fillColor=none;" vertex="1" parent="1">
          <mxGeometry x="70" y="210" width="180" height="30" as="geometry" />
        </mxCell>
        <mxCell id="8hrsjIlJ7boSl-8sddWK-12" value="Estratégia de Disaster Recovery" style="rounded=0;whiteSpace=wrap;html=1;" vertex="1" parent="1">
          <mxGeometry x="180" y="300" width="120" height="60" as="geometry" />
        </mxCell>
        <mxCell id="8hrsjIlJ7boSl-8sddWK-14" value="&lt;div&gt;Necessário criptografia de dados&lt;/div&gt;" style="whiteSpace=wrap;html=1;" vertex="1" parent="1">
          <mxGeometry x="340" y="55" width="80" height="50" as="geometry" />
        </mxCell>
        <mxCell id="8hrsjIlJ7boSl-8sddWK-16" value="" style="rounded=0;whiteSpace=wrap;html=1;" vertex="1" parent="1">
          <mxGeometry x="20" y="458" width="270" height="152" as="geometry" />
        </mxCell>
        <mxCell id="8hrsjIlJ7boSl-8sddWK-17" value="Observabilidade" style="text;html=1;align=center;verticalAlign=middle;resizable=0;points=[];autosize=1;strokeColor=none;fillColor=none;" vertex="1" parent="1">
          <mxGeometry x="110" y="428" width="110" height="30" as="geometry" />
        </mxCell>
        <mxCell id="8hrsjIlJ7boSl-8sddWK-18" value="Zabbix&lt;span style=&quot;white-space: pre;&quot;&gt;&#x9;&lt;/span&gt; " style="rounded=0;whiteSpace=wrap;html=1;" vertex="1" parent="1">
          <mxGeometry x="30" y="470" width="120" height="60" as="geometry" />
        </mxCell>
        <mxCell id="8hrsjIlJ7boSl-8sddWK-19" value="Grafana" style="rounded=0;whiteSpace=wrap;html=1;" vertex="1" parent="1">
          <mxGeometry x="160" y="470" width="120" height="60" as="geometry" />
        </mxCell>
        <mxCell id="8hrsjIlJ7boSl-8sddWK-20" value="LogDog" style="rounded=0;whiteSpace=wrap;html=1;" vertex="1" parent="1">
          <mxGeometry x="95" y="540" width="120" height="60" as="geometry" />
        </mxCell>
        <mxCell id="8hrsjIlJ7boSl-8sddWK-21" value="&#xa;Firewall&#xa;&#xa;" style="text;whiteSpace=wrap;html=1;" vertex="1" parent="1">
          <mxGeometry x="550" y="197" width="80" height="40" as="geometry" />
        </mxCell>
        <mxCell id="8hrsjIlJ7boSl-8sddWK-22" value="Firewall" style="text;whiteSpace=wrap;html=1;" vertex="1" parent="1">
          <mxGeometry x="550" y="130" width="80" height="40" as="geometry" />
        </mxCell>
        <mxCell id="8hrsjIlJ7boSl-8sddWK-23" value="" style="rounded=0;whiteSpace=wrap;html=1;" vertex="1" parent="1">
          <mxGeometry x="430" y="440" width="290" height="160" as="geometry" />
        </mxCell>
        <mxCell id="8hrsjIlJ7boSl-8sddWK-24" value="Gestão de Custos" style="text;html=1;align=center;verticalAlign=middle;whiteSpace=wrap;rounded=0;" vertex="1" parent="1">
          <mxGeometry x="512.5" y="410" width="125" height="30" as="geometry" />
        </mxCell>
        <mxCell id="8hrsjIlJ7boSl-8sddWK-25" value="Instâncias reservadas, automações de escalabilidade, revisão periódica de uso de recursos, monitor uso de recursos e custos em tempo real, utilizar a ferramenta própria da nuvem &quot;Azure Cost Management&quot;." style="text;html=1;align=center;verticalAlign=middle;whiteSpace=wrap;rounded=0;" vertex="1" parent="1">
          <mxGeometry x="440" y="450" width="270" height="140" as="geometry" />
        </mxCell>
      </root>
    </mxGraphModel>
  </diagram>
</mxfile>
